# File created by Blade
# Date/Time:  Wed Sep 24 20:21:23 2014
# Frame Rate: 120.000 fps
#------------------------------------------------------
:FULLY-SPECIFIED
:DEGREES
631
root -7.437231 33.225743 -3.090877 6.361494 19.944372 34.914252
Spine 4.787875 -24.926728 -41.586907
Head 1.008374 -8.403992 24.339608
LeftShoulder 7.552531 -23.981952 28.445959
LeftArm 137.564863 -71.100047 -155.042060
LeftForeArm -13.723068 -0.000000 45.699646
LeftHand -14.772352 -0.000000 -33.428553
LeftHandThumb1 -26.253704 0.000000 33.147579
RightShoulder -15.470314 20.632944 -28.925133
RightArm -10.609125 4.456717 15.070512
RightForeArm -22.694599 0.000000 9.652650
RightHand -7.411620 0.000000 10.884690
RightHandThumb1 -24.326973 -0.000000 -32.862282
LeftUpLeg -150.238615 34.410048 -32.048112
LeftLeg 4.311492 -0.000000 -0.000000
LeftFoot 41.186609 23.924309 -10.093372
LeftToeBase 12.534812 -0.000000 -0.000000
RightUpLeg -2.919728 -2.865548 -24.810326
RightLeg 33.029642 -0.000000 -0.000000
RightFoot -21.059805 -32.937902 -6.409684
RightToeBase 0.134757 -0.000000 -0.000000
632
root -7.425081 33.227860 -3.094523 6.374984 19.960626 35.015188
Spine 4.792510 -24.918919 -41.609729
Head 1.125141 -8.265886 24.154008
LeftShoulder 7.500220 -23.974950 28.462017
LeftArm 137.504192 -71.067620 -154.956255
LeftForeArm -13.723321 -0.000000 45.712403
LeftHand -14.892060 -0.000000 -33.388623
LeftHandThumb1 -26.253704 0.000000 33.147579
RightShoulder -15.469434 20.681927 -28.943741
RightArm -10.583954 4.438018 15.087789
RightForeArm -22.730927 -0.000000 9.636981
RightHand -7.331714 0.000000 10.953335
RightHandThumb1 -24.326973 -0.000000 -32.862282
LeftUpLeg -150.265120 34.433368 -32.080023
LeftLeg 4.316565 -0.000000 -0.000000
LeftFoot 41.191206 23.909208 -10.064986
LeftToeBase 12.736127 -0.000000 -0.000000
RightUpLeg -2.897719 -2.795630 -24.913527
RightLeg 33.062063 -0.000000 -0.000000
RightFoot -21.094732 -33.002987 -6.313841
RightToeBase 0.169790 -0.000000 -0.000000
633
root -7.413389 33.230068 -3.098607 6.396599 19.974797 35.115213
Spine 4.782535 -24.893258 -41.622097
Head 1.248592 -8.123747 23.960577
LeftShoulder 7.466066 -24.002832 28.475196
LeftArm 137.401982 -71.064669 -154.857369
LeftForeArm -13.643697 -0.000000 45.718626
LeftHand -14.804792 -0.000000 -33.414246
LeftHandThumb1 -26.253704 0.000000 33.147579
RightShoulder -15.482784 20.692607 -28.955123
RightArm -10.535436 4.393627 15.091843
RightForeArm -22.688012 -0.000000 9.597163
RightHand -7.328425 0.000000 10.987730
RightHandThumb1 -24.326973 -0.000000 -32.862282
LeftUpLeg -150.298623 34.445035 -32.117459
LeftLeg 4.318279 -0.000000 -0.000000
LeftFoot 41.167759 23.893093 -10.031657
LeftToeBase 12.229862 -0.000000 -0.000000
RightUpLeg -2.881294 -2.759994 -25.018737
RightLeg 33.081391 -0.000000 -0.000000
RightFoot -21.117121 -33.055808 -6.259593
RightToeBase 0.174895 -0.000000 -0.000000
634
root -7.401964 33.232023 -3.103123 6.430930 20.004377 35.210173
Spine 4.756677 -24.868629 -41.615750
Head 1.412852 -7.992948 23.749359
LeftShoulder 7.465239 -24.085503 28.467115
LeftArm 137.218851 -71.121455 -154.677149
LeftForeArm -13.645325 -0.000000 45.709873
LeftHand -14.808406 -0.000000 -33.380248
LeftHandThumb1 -26.253704 0.000000 33.147579
RightShoulder -15.508255 20.697612 -29.008566
RightArm -10.515623 4.379160 15.120456
RightForeArm -22.720248 -0.000000 9.580657
RightHand -7.333491 -0.000000 10.930900
RightHandThumb1 -24.326973 -0.000000 -32.862282
LeftUpLeg -150.352406 34.414593 -32.166136
LeftLeg 4.324964 -0.000000 -0.000000
LeftFoot 41.151808 23.866304 -10.027675
LeftToeBase 12.601274 -0.000000 -0.000000
RightUpLeg -2.862025 -2.751904 -25.121482
RightLeg 33.087682 -0.000000 -0.000000
RightFoot -21.148995 -33.092673 -6.231872
RightToeBase 0.261515 -0.000000 -0.000000
635
root -7.390638 33.234325 -3.107462 6.475552 20.037445 35.295708
Spine 4.711051 -24.855795 -41.586155
Head 1.574514 -7.896046 23.514332
LeftShoulder 7.474697 -24.158228 28.440908
LeftArm 137.039700 -71.184045 -154.507680
LeftForeArm -13.647705 -0.000000 45.735383
LeftHand -14.842299 -0.000000 -33.393252
LeftHandThumb1 -26.253704 0.000000 33.147579
RightShoulder -15.520857 20.709647 -29.050826
RightArm -10.509960 4.373829 15.123187
RightForeArm -22.729243 -0.000000 9.587720
RightHand -7.554496 0.000000 10.718894
RightHandThumb1 -24.326973 -0.000000 -32.862282
LeftUpLeg -150.413141 34.384353 -32.214416
LeftLeg 4.320026 -0.000000 -0.000000
LeftFoot 41.134154 23.904867 -10.104519
LeftToeBase 12.730444 -0.000000 -0.000000
RightUpLeg -2.854713 -2.756511 -25.215395
RightLeg 33.093648 -0.000000 -0.000000
RightFoot -21.160033 -33.132214 -6.204277
RightToeBase 0.260348 -0.000000 -0.000000
636
root -7.379760 33.238691 -3.114546 6.532467 20.077876 35.398239
Spine 4.677106 -24.867344 -41.590133
Head 1.745920 -7.802660 23.307643
LeftShoulder 7.450815 -24.150437 28.458736
LeftArm 136.986481 -71.143824 -154.484062
LeftForeArm -13.669166 -0.000000 45.767788
LeftHand -14.883840 -0.000000 -33.390180
LeftHandThumb1 -26.253704 0.000000 33.147579
RightShoulder -15.507830 20.740776 -29.070921
RightArm -10.514589 4.400221 15.114588
RightForeArm -22.722051 -0.000000 9.586586
RightHand -7.655813 -0.000000 10.635336
RightHandThumb1 -24.326973 -0.000000 -32.862282
LeftUpLeg -150.416525 34.406818 -32.218359
LeftLeg 4.287078 -0.000000 -0.000000
LeftFoot 41.196155 23.922769 -10.050681
LeftToeBase 12.312592 -0.000000 -0.000000
RightUpLeg -2.856795 -2.764417 -25.325437
RightLeg 33.112061 -0.000000 -0.000000
RightFoot -21.170834 -33.156765 -6.140432
RightToeBase 0.245487 -0.000000 -0.000000
637
root -7.368848 33.244347 -3.121293 6.590236 20.140178 35.503322
Spine 4.656367 -24.890920 -41.596498
Head 1.906465 -7.728338 23.075821
LeftShoulder 7.393266 -24.032157 28.484839
LeftArm 136.958804 -70.963460 -154.471498
LeftForeArm -13.645640 -0.000000 45.758051
LeftHand -14.860318 -0.000000 -33.382138
LeftHandThumb1 -26.253704 0.000000 33.147579
RightShoulder -15.503422 20.743208 -29.092815
RightArm -10.504647 4.450954 15.107405
RightForeArm -22.745899 -0.000000 9.583506
RightHand -7.637505 0.000000 10.674046
RightHandThumb1 -24.326973 -0.000000 -32.862282
LeftUpLeg -150.388842 34.423632 -32.200041
LeftLeg 4.240909 -0.000000 -0.000000
LeftFoot 41.222535 23.965007 -10.003030
LeftToeBase 12.589422 -0.000000 -0.000000
RightUpLeg -2.834814 -2.857941 -25.453442
RightLeg 33.093937 -0.000000 -0.000000
RightFoot -21.163226 -33.110393 -6.146939
RightToeBase 0.217551 -0.000000 -0.000000
638
root -7.358079 33.248848 -3.127135 6.648413 20.184689 35.611143
Spine 4.650293 -24.882037 -41.637200
Head 2.009932 -7.642618 22.931412
LeftShoulder 7.343581 -24.048878 28.557612
LeftArm 136.760631 -70.925777 -154.341729
LeftForeArm -13.644577 -0.000000 45.798610
LeftHand -14.905421 0.000000 -33.400600
LeftHandThumb1 -26.253704 0.000000 33.147579
RightShoulder -15.510658 20.767114 -29.184124
RightArm -10.634651 4.526148 15.197852
RightForeArm -22.932032 -0.000000 9.852107
RightHand -8.580996 -0.000000 10.335039
RightHandThumb1 -24.326973 -0.000000 -32.862282
LeftUpLeg -150.463059 34.356530 -32.281578
LeftLeg 4.265855 -0.000000 -0.000000
LeftFoot 41.236963 23.919095 -10.045229
LeftToeBase 12.311292 -0.000000 -0.000000
RightUpLeg -2.838413 -2.857928 -25.563291
RightLeg 33.117271 -0.000000 -0.000000
RightFoot -21.145743 -33.157936 -6.102977
RightToeBase 0.205717 -0.000000 -0.000000
639
root -7.349638 33.254856 -3.135015 6.704229 20.242907 35.699858
Spine 4.617363 -24.897594 -41.595390
Head 2.167432 -7.536863 22.563549
LeftShoulder 7.349064 -24.055394 28.485635
LeftArm 136.657707 -70.952419 -154.185113
LeftForeArm -13.727555 -0.000000 45.762166
LeftHand -14.850222 -0.000000 -33.326370
LeftHandThumb1 -26.253704 0.000000 33.147579
RightShoulder -15.531811 20.730446 -29.134783
RightArm -10.483969 4.360164 15.107546
RightForeArm -22.678263 -0.000000 9.602801
RightHand -7.573686 0.000000 10.807722
RightHandThumb1 -24.326973 -0.000000 -32.862282
LeftUpLeg -150.485020 34.332577 -32.290766
LeftLeg 4.267709 -0.000000 -0.000000
LeftFoot 41.135494 24.014104 -10.137231
LeftToeBase 12.968810 -0.000000 -0.000000
RightUpLeg -2.835585 -2.876337 -25.652653
RightLeg 33.118034 -0.000000 -0.000000
RightFoot -21.123785 -33.176321 -6.047303
RightToeBase 0.184658 -0.000000 -0.000000
640
root -7.338919 33.261528 -3.144131 6.769722 20.282170 35.824050
Spine 4.606262 -24.893831 -41.632967
Head 2.266672 -7.409547 22.361604
LeftShoulder 7.326859 -24.094928 28.514766
LeftArm 136.619104 -70.932756 -154.161674
LeftForeArm -13.661505 -0.000000 45.746293
LeftHand -14.833952 -0.000000 -33.425510
LeftHandThumb1 -26.253704 0.000000 33.147579
RightShoulder -15.599287 20.959559 -29.256691
RightArm -10.478090 4.158759 15.144296
RightForeArm -22.742863 -0.000000 9.534563
RightHand -7.565209 -0.000000 10.875187
RightHandThumb1 -24.326973 -0.000000 -32.862282
LeftUpLeg -150.478852 34.369588 -32.295436
LeftLeg 4.259715 -0.000000 -0.000000
LeftFoot 41.184489 23.977687 -9.975719
LeftToeBase 12.570072 -0.000000 -0.000000
RightUpLeg -2.846104 -2.870905 -25.783766
RightLeg 33.137472 -0.000000 -0.000000
RightFoot -21.135450 -33.189000 -5.951841
RightToeBase 0.240291 -0.000000 -0.000000
641
root -7.329811 33.267298 -3.153419 6.832867 20.307506 35.931823
Spine 4.595184 -24.884520 -41.654782
Head 2.328984 -7.259043 22.176804
LeftShoulder 7.279391 -24.097489 28.548384
LeftArm 136.527146 -70.891625 -154.073763
LeftForeArm -13.683132 -0.000000 45.769655
LeftHand -14.880312 -0.000000 -33.401374
LeftHandThumb1 -26.253704 0.000000 33.147579
RightShoulder -15.602296 20.993865 -29.297592
RightArm -10.469151 4.259587 15.135262
RightForeArm -22.901627 -0.000000 9.481005
RightHand -7.439584 -0.000000 10.828722
RightHandThumb1 -24.326973 -0.000000 -32.862282
LeftUpLeg -150.540058 34.349399 -32.354462
LeftLeg 4.274269 -0.000000 -0.000000
LeftFoot 41.172100 23.922022 -9.897479
LeftToeBase 12.366683 -0.000000 -0.000000
RightUpLeg -2.867111 -2.813683 -25.884044
RightLeg 33.153465 -0.000000 -0.000000
RightFoot -21.135048 -33.258017 -5.871493
RightToeBase 0.301839 -0.000000 -0.000000
642
root -7.321983 33.274523 -3.163571 6.891628 20.333796 36.041290
Spine 4.603285 -24.870436 -41.688941
Head 2.376784 -7.095827 22.010963
LeftShoulder 7.250267 -24.117457 28.568313
LeftArm 136.420698 -70.906472 -153.938535
LeftForeArm -13.772092 -0.000000 45.783267
LeftHand -14.903155 0.000000 -33.288658
LeftHandThumb1 -26.253704 0.000000 33.147579
RightShoulder -15.607790 21.012435 -29.307377
RightArm -10.453587 4.231410 15.133492
RightForeArm -22.919796 -0.000000 9.447134
RightHand -7.413721 0.000000 11.119872
RightHandThumb1 -24.326973 -0.000000 -32.862282
LeftUpLeg -150.549543 34.378979 -32.380086
LeftLeg 4.229416 -0.000000 -0.000000
LeftFoot 41.111118 24.057434 -10.022655
LeftToeBase 12.863367 -0.000000 -0.000000
RightUpLeg -2.866738 -2.790847 -25.993124
RightLeg 33.132777 -0.000000 -0.000000
RightFoot -21.098435 -33.313172 -5.847400
RightToeBase 0.316307 -0.000000 -0.000000
643
root -7.312378 33.281110 -3.174669 6.963956 20.353917 36.156640
Spine 4.606570 -24.854120 -41.731478
Head 2.406929 -6.939358 21.870943
LeftShoulder 7.201581 -24.160547 28.622886
LeftArm 136.275757 -70.928483 -153.810579
LeftForeArm -13.688973 -0.000000 45.812573
LeftHand -14.870853 0.000000 -33.366436
LeftHandThumb1 -26.253704 0.000000 33.147579
RightShoulder -15.591361 21.006059 -29.348147
RightArm -10.496716 4.236734 15.190315
RightForeArm -22.969495 -0.000000 9.516569
RightHand -7.646239 0.000000 10.967291
RightHandThumb1 -24.326973 -0.000000 -32.862282
LeftUpLeg -150.557441 34.452312 -32.382877
LeftLeg 4.205144 -0.000000 -0.000000
LeftFoot 41.082669 24.155198 -10.049941
LeftToeBase 12.632900 -0.000000 -0.000000
RightUpLeg -2.881563 -2.841496 -26.125916
RightLeg 33.113510 -0.000000 -0.000000
RightFoot -21.054718 -33.322856 -5.895244
RightToeBase 0.291477 -0.000000 -0.000000
